<svg width="40" height="40" fill="none" xmlns="http://www.w3.org/2000/svg"><path d="M20 3.333a16.667 16.667 0 100 33.334 16.667 16.667 0 000-33.334z" fill="#29B6F6"/><path d="M28.291 12.5L25.17 28.438s-.135.729-1.038.729c-.48 0-.727-.229-.727-.229l-6.762-5.61-3.308-1.668-4.246-1.13s-.756-.218-.756-.843c0-.52.778-.769.778-.769l17.763-7.056c-.001-.001.542-.196.938-.196.243 0 .521.105.521.417 0 .208-.042.417-.042.417z" fill="#fff"/><path d="M19.166 25.42l-2.855 2.812s-.124.096-.29.1a.412.412 0 01-.182-.035l.803-4.971 2.524 2.095z" fill="#B0BEC5"/><path d="M24.914 15.163a.417.417 0 00-.584-.077l-10.997 6.58s1.755 4.91 2.022 5.76c.269.851.484.871.484.871l.803-4.97 8.194-7.58c.183-.14.217-.4.078-.584z" fill="#CFD8DC"/></svg>